<?xml version="1.0" encoding="UTF-8"?>
<svg id="a" data-name="ICONS" xmlns="http://www.w3.org/2000/svg" viewBox="0 0 24 24">
  <g>
    <path d="M21.15,21.27H2.91c-.92,0-1.67-.75-1.67-1.67v-4.41c0-.92.75-1.67,1.67-1.67h4.11c.67,0,1.27.4,1.53,1.01l.43,1.01c.1.25.35.4.61.4h4.86c.27,0,.51-.16.61-.4l.43-1.01c.26-.61.86-1.01,1.53-1.01h4.11c.92,0,1.67.75,1.67,1.67v4.41c0,.92-.75,1.67-1.67,1.67ZM2.91,14.53c-.37,0-.67.3-.67.67v4.41c0,.37.3.67.67.67h18.24c.37,0,.67-.3.67-.67v-4.41c0-.37-.3-.67-.67-.67h-4.11c-.27,0-.51.16-.61.4l-.43,1.01c-.26.61-.86,1.01-1.53,1.01h-4.86c-.67,0-1.27-.4-1.53-1.01l-.43-1.01c-.11-.25-.35-.4-.61-.4H2.91Z"/>
    <path d="M21.09,14.45H2.85c-.92,0-1.67-.75-1.67-1.67v-4.71c0-.75.61-1.37,1.36-1.37h4.61c.55,0,1.04.33,1.25.83l.59,1.37c.06.13.19.22.34.22h5.26c.15,0,.28-.09.33-.22l.59-1.37c.21-.5.71-.83,1.25-.83h4.61c.75,0,1.36.61,1.36,1.37v4.71c0,.92-.75,1.67-1.67,1.67ZM2.55,7.7c-.2,0-.36.16-.36.37v4.71c0,.37.3.67.67.67h18.24c.37,0,.67-.3.67-.67v-4.71c0-.2-.16-.37-.36-.37h-4.61c-.15,0-.28.09-.33.22l-.59,1.37c-.21.5-.71.83-1.25.83h-5.26c-.55,0-1.04-.33-1.25-.83l-.59-1.37c-.06-.13-.19-.22-.33-.22H2.55Z"/>
    <path d="M21.83,7.7c-.14,0-.27-.05-.37-.16l-3.4-3.71c-.06-.07-.15-.11-.24-.11H6.13c-.09,0-.18.04-.24.11l-3.4,3.71c-.19.2-.5.22-.71.03-.2-.19-.22-.5-.03-.71l3.4-3.71c.25-.27.61-.43.98-.43h11.7c.37,0,.73.16.98.43l3.4,3.71c.19.2.17.52-.03.71-.1.09-.22.13-.34.13Z"/>
  </g>
  <g>
    <path d="M21.15,21.27H2.91c-.92,0-1.67-.75-1.67-1.67v-4.41c0-.92.75-1.67,1.67-1.67h4.11c.67,0,1.27.4,1.53,1.01l.43,1.01c.1.25.35.4.61.4h4.86c.27,0,.51-.16.61-.4l.43-1.01c.26-.61.86-1.01,1.53-1.01h4.11c.92,0,1.67.75,1.67,1.67v4.41c0,.92-.75,1.67-1.67,1.67ZM2.91,14.53c-.37,0-.67.3-.67.67v4.41c0,.37.3.67.67.67h18.24c.37,0,.67-.3.67-.67v-4.41c0-.37-.3-.67-.67-.67h-4.11c-.27,0-.51.16-.61.4l-.43,1.01c-.26.61-.86,1.01-1.53,1.01h-4.86c-.67,0-1.27-.4-1.53-1.01l-.43-1.01c-.11-.25-.35-.4-.61-.4H2.91Z"/>
    <path d="M21.09,14.45H2.85c-.92,0-1.67-.75-1.67-1.67v-4.41c0-.92.75-1.67,1.67-1.67h4.11c.67,0,1.27.4,1.53,1.01l.43,1.01c.1.25.35.4.61.4h4.86c.27,0,.51-.16.61-.4l.43-1.01c.26-.61.86-1.01,1.53-1.01h4.11c.92,0,1.67.75,1.67,1.67v4.41c0,.92-.75,1.67-1.67,1.67ZM2.85,7.7c-.37,0-.67.3-.67.67v4.41c0,.37.3.67.67.67h18.24c.37,0,.67-.3.67-.67v-4.41c0-.37-.3-.67-.67-.67h-4.11c-.27,0-.51.16-.61.4l-.43,1.01c-.26.61-.86,1.01-1.53,1.01h-4.86c-.67,0-1.27-.4-1.53-1.01l-.43-1.01c-.1-.25-.35-.4-.61-.4H2.85Z"/>
    <path d="M21.83,7.7c-.14,0-.27-.05-.37-.16l-3.3-3.6c-.13-.14-.3-.22-.49-.22H6.27c-.19,0-.37.08-.49.22l-3.3,3.6c-.19.2-.5.22-.71.03-.2-.19-.22-.5-.03-.71l3.3-3.6c.31-.34.76-.54,1.23-.54h11.4c.47,0,.91.2,1.23.54l3.3,3.6c.19.2.17.52-.03.71-.1.09-.22.13-.34.13Z"/>
  </g>
</svg>