<?xml version="1.0" encoding="UTF-8"?>
<svg id="a" data-name="ICONS" xmlns="http://www.w3.org/2000/svg" viewBox="0 0 24 24">
  <path d="M17.05,20.03H2.59c-.92,0-1.67-.75-1.67-1.67V5.64c0-.92.75-1.67,1.67-1.67h14.46c.92,0,1.67.75,1.67,1.67v12.72c0,.92-.75,1.67-1.67,1.67ZM2.59,4.97c-.37,0-.67.3-.67.67v12.72c0,.37.3.67.67.67h14.46c.37,0,.67-.3.67-.67V5.64c0-.37-.3-.67-.67-.67H2.59Z"/>
  <path d="M21.99,17.68c-.18,0-.37-.05-.54-.14l-3.49-1.98c-.16-.09-.25-.25-.25-.43v-6.24c0-.18.1-.35.25-.43l3.49-1.98c.34-.19.74-.19,1.08,0,.34.2.54.55.54.94v9.19c0,.39-.2.74-.54.94-.17.1-.36.15-.54.15ZM18.72,14.83l3.23,1.84.12-.07V7.41s-.01-.06-.04-.07l-3.32,1.84v5.66Z"/>
</svg>