<?xml version="1.0" encoding="UTF-8"?>
<svg id="a" data-name="ICONS" xmlns="http://www.w3.org/2000/svg" viewBox="0 0 24 24">
  <path d="M12.01,23.02c-.2,0-.4,0-.6-.02-4.53-.3-8.2-4.24-8.18-8.8.03-6.44,6.23-11.59,8.13-13.01.39-.29.91-.29,1.29,0,1.91,1.43,8.13,6.59,8.13,13.05,0,2.42-1.01,4.75-2.78,6.4-1.64,1.54-3.75,2.37-5.99,2.37ZM12.05,2c-1.38.96-7.79,6.08-7.82,12.21h0c-.02,4.04,3.23,7.53,7.25,7.79,2.17.14,4.25-.6,5.84-2.08,1.59-1.49,2.46-3.5,2.46-5.67,0-6.16-6.44-11.29-7.73-12.25ZM3.73,14.21h0,0Z"/>
  <g>
    <path d="M20.22,14.75c-.45,4.35-4.26,7.7-8.79,7.4-4-.26-7.25-3.48-7.66-7.4h16.45Z"/>
    <path d="M12,22.52c-.19,0-.39,0-.59-.02-4.12-.27-7.55-3.58-7.98-7.71-.01-.1.02-.2.09-.27.07-.07.16-.12.26-.12h16.45c.1,0,.19.04.26.12s.1.17.09.27c-.46,4.44-4.17,7.73-8.57,7.73ZM4.17,15.1c.56,3.61,3.63,6.46,7.28,6.7,4.15.28,7.75-2.64,8.37-6.7H4.17Z"/>
  </g>
</svg>