<?xml version="1.0" encoding="UTF-8"?>
<svg id="a" data-name="ICONS" xmlns="http://www.w3.org/2000/svg" viewBox="0 0 24 24">
  <path d="M12,19.13c-6.29,0-9.45-4.85-10.27-6.34-.28-.5-.28-1.1,0-1.6.82-1.49,3.98-6.34,10.26-6.34s9.45,4.85,10.27,6.34c.28.5.28,1.1,0,1.6-.82,1.49-3.98,6.34-10.26,6.34ZM12,5.87c-5.58,0-8.43,4.07-9.39,5.82-.11.2-.11.43,0,.63h0c.96,1.75,3.81,5.82,9.39,5.82s8.43-4.07,9.39-5.82c.11-.2.11-.43,0-.63-.96-1.75-3.81-5.82-9.39-5.82Z"/>
  <path d="M12,15.66c-2.02,0-3.66-1.64-3.66-3.66s1.64-3.66,3.66-3.66,3.66,1.64,3.66,3.66-1.64,3.66-3.66,3.66ZM12,9.34c-1.47,0-2.66,1.19-2.66,2.66s1.19,2.66,2.66,2.66,2.66-1.19,2.66-2.66-1.19-2.66-2.66-2.66Z"/>
</svg>