<?xml version="1.0" encoding="UTF-8"?>
<svg id="a" data-name="ICONS" xmlns="http://www.w3.org/2000/svg" viewBox="0 0 24 24">
  <path d="M20.53,20.93c-.1,0-.2-.04-.28-.12L3.18,3.75c-.16-.16-.16-.41,0-.57s.41-.16.57,0l17.07,17.06c.16.16.16.41,0,.57-.08.08-.18.12-.28.12Z"/>
  <path d="M12,19.13c-6.29,0-9.45-4.85-10.27-6.34h0c-.27-.5-.27-1.1,0-1.6.82-1.49,3.98-6.34,10.27-6.34s9.45,4.85,10.27,6.34c.27.5.27,1.09,0,1.59-.82,1.49-3.98,6.34-10.27,6.34ZM2.61,12.32c.96,1.75,3.81,5.82,9.39,5.82s8.43-4.07,9.39-5.82c.11-.2.11-.43,0-.62-.96-1.75-3.81-5.82-9.39-5.82S3.57,9.94,2.61,11.68c-.11.2-.11.43,0,.63h0Z"/>
  <path d="M12,15.66c-2.02,0-3.66-1.64-3.66-3.66s1.64-3.66,3.66-3.66,3.66,1.64,3.66,3.66-1.64,3.66-3.66,3.66ZM12,9.34c-1.47,0-2.66,1.19-2.66,2.66s1.19,2.66,2.66,2.66,2.66-1.19,2.66-2.66-1.19-2.66-2.66-2.66Z"/>
</svg>