<?xml version="1.0" encoding="UTF-8"?>
<svg id="a" data-name="ICONS" xmlns="http://www.w3.org/2000/svg" viewBox="0 0 24 24">
  <path d="M12.01,23.02c-.2,0-.4,0-.6-.02-4.53-.3-8.2-4.24-8.18-8.8h0c.03-6.44,6.23-11.59,8.13-13.01.39-.29.91-.29,1.29,0,1.91,1.43,8.13,6.59,8.13,13.05,0,2.42-1.01,4.75-2.78,6.4-1.64,1.54-3.75,2.37-5.99,2.37ZM4.23,14.21c-.02,4.04,3.23,7.53,7.25,7.79,2.19.15,4.25-.6,5.84-2.08,1.59-1.49,2.46-3.5,2.46-5.67,0-6.16-6.44-11.29-7.73-12.25-1.38.96-7.79,6.08-7.82,12.21h0Z"/>
  <g>
    <path d="M20.27,13.9c0,4.75-4.01,8.57-8.83,8.25-4.3-.28-7.73-3.97-7.71-8.29.01-1.67.45-3.26,1.15-4.71h14.25c.69,1.46,1.14,3.06,1.14,4.75Z"/>
    <path d="M12.01,22.52c-.2,0-.39,0-.59-.02-4.45-.29-8.06-4.17-8.04-8.64,0-1.62.41-3.25,1.18-4.86.06-.12.18-.2.32-.2h14.25c.14,0,.26.08.32.2.78,1.65,1.17,3.29,1.17,4.9,0,2.38-1,4.67-2.73,6.29-1.61,1.51-3.68,2.32-5.88,2.32ZM5.1,9.5c-.67,1.45-1.01,2.92-1.02,4.36-.02,4.11,3.29,7.67,7.38,7.94,2.22.15,4.33-.61,5.95-2.12,1.6-1.49,2.51-3.6,2.51-5.78,0-1.44-.34-2.92-1.01-4.4H5.1Z"/>
  </g>
</svg>