<?xml version="1.0" encoding="UTF-8"?>
<svg id="a" data-name="ICONS" xmlns="http://www.w3.org/2000/svg" viewBox="0 0 24 24">
  <path d="M3.73,14.21c.03-6.31,6.36-11.44,7.93-12.61.21-.16.49-.15.69,0,1.57,1.17,7.93,6.33,7.93,12.65,0,4.75-4.01,8.57-8.83,8.25-4.31-.28-7.73-3.98-7.72-8.3Z"/>
  <path d="M12.01,23.02c-.2,0-.4,0-.6-.02-4.53-.3-8.2-4.24-8.18-8.8h0c.03-6.44,6.23-11.59,8.13-13.01.39-.29.91-.29,1.29,0,1.91,1.43,8.13,6.59,8.13,13.05,0,2.42-1.01,4.75-2.78,6.4-1.64,1.54-3.75,2.37-5.99,2.37ZM4.23,14.21c-.02,4.04,3.23,7.53,7.25,7.79,2.2.15,4.25-.6,5.84-2.08,1.59-1.49,2.46-3.5,2.46-5.67,0-6.16-6.44-11.29-7.73-12.25-1.38.96-7.79,6.08-7.82,12.21h0Z"/>
</svg>