<?xml version="1.0" encoding="UTF-8"?>
<svg id="a" data-name="ICONS" xmlns="http://www.w3.org/2000/svg" viewBox="0 0 24 24">
  <path d="M12.01,23.02c-.2,0-.4,0-.6-.02-4.53-.3-8.2-4.24-8.18-8.8.03-6.44,6.23-11.59,8.13-13.01.39-.29.91-.29,1.29,0,1.91,1.43,8.13,6.59,8.13,13.05,0,2.42-1.01,4.75-2.78,6.4-1.64,1.54-3.75,2.37-5.99,2.37ZM12.05,2c-1.38.96-7.79,6.08-7.82,12.21h0c-.02,4.04,3.23,7.53,7.25,7.79,2.17.14,4.25-.6,5.84-2.08,1.59-1.49,2.46-3.5,2.46-5.67,0-6.15-6.44-11.29-7.73-12.25ZM3.73,14.21h0,0Z"/>
</svg>