<?xml version="1.0" encoding="UTF-8"?>
<svg id="a" data-name="ICONS" xmlns="http://www.w3.org/2000/svg" viewBox="0 0 24 24">
  <path d="M21.8,20.38H2.2c-.6,0-1.08-.49-1.08-1.08v-7.14c0-.6.49-1.08,1.08-1.08h19.6c.6,0,1.08.49,1.08,1.08v7.14c0,.6-.49,1.08-1.08,1.08ZM2.2,12.07s-.08.04-.08.08v7.14s.04.08.08.08h19.6s.08-.04.08-.08v-7.14s-.04-.08-.08-.08H2.2Z"/>
  <rect x="3" y="6.54" width="18.01" height="1"/>
  <path d="M1.83,10.46c-.28,0-.5-.22-.5-.5v-5.83c0-.28.22-.5.5-.5s.5.22.5.5v5.83c0,.28-.22.5-.5.5Z"/>
  <g>
    <path d="M3.71,15.31c-.21,0-.37-.17-.37-.37v-3.34c0-.21.17-.37.37-.37s.37.17.37.37v3.34c0,.21-.17.37-.37.37Z"/>
    <path d="M5.78,14.31c-.21,0-.37-.17-.37-.37v-2.34c0-.21.17-.37.37-.37s.37.17.37.37v2.34c0,.21-.17.37-.37.37Z"/>
    <path d="M7.86,14.31c-.21,0-.37-.17-.37-.37v-2.34c0-.21.17-.37.37-.37s.37.17.37.37v2.34c0,.21-.17.37-.37.37Z"/>
    <path d="M9.93,15.31c-.21,0-.37-.17-.37-.37v-3.34c0-.21.17-.37.37-.37s.37.17.37.37v3.34c0,.21-.17.37-.37.37Z"/>
    <path d="M12,14.31c-.21,0-.37-.17-.37-.37v-2.34c0-.21.17-.37.37-.37s.37.17.37.37v2.34c0,.21-.17.37-.37.37Z"/>
    <path d="M14.07,14.31c-.21,0-.37-.17-.37-.37v-2.34c0-.21.17-.37.37-.37s.37.17.37.37v2.34c0,.21-.17.37-.37.37Z"/>
    <path d="M16.14,15.31c-.21,0-.37-.17-.37-.37v-3.34c0-.21.17-.37.37-.37s.37.17.37.37v3.34c0,.21-.17.37-.37.37Z"/>
    <path d="M18.22,14.31c-.21,0-.37-.17-.37-.37v-2.34c0-.21.17-.37.37-.37s.37.17.37.37v2.34c0,.21-.17.37-.37.37Z"/>
    <path d="M20.29,14.31c-.21,0-.37-.17-.37-.37v-2.34c0-.21.17-.37.37-.37s.37.17.37.37v2.34c0,.21-.17.37-.37.37Z"/>
  </g>
  <path d="M22.17,10.46c-.28,0-.5-.22-.5-.5v-5.83c0-.28.22-.5.5-.5s.5.22.5.5v5.83c0,.28-.22.5-.5.5Z"/>
  <path d="M4.75,9.29c-.13,0-.26-.05-.35-.15l-1.75-1.75c-.2-.2-.2-.51,0-.71l1.75-1.75c.2-.2.51-.2.71,0s.2.51,0,.71l-1.4,1.4,1.4,1.4c.2.2.2.51,0,.71-.1.1-.23.15-.35.15Z"/>
  <path d="M19.25,9.29c-.13,0-.26-.05-.35-.15-.2-.2-.2-.51,0-.71l1.4-1.4-1.4-1.4c-.2-.2-.2-.51,0-.71s.51-.2.71,0l1.75,1.75c.09.09.15.22.15.35s-.05.26-.15.35l-1.75,1.75c-.1.1-.23.15-.35.15Z"/>
</svg>