<?xml version="1.0" encoding="UTF-8"?>
<svg id="a" data-name="ICONS" xmlns="http://www.w3.org/2000/svg" viewBox="0 0 24 24">
  <path d="M12.03,21.9c-4.17,0-8.04-2.68-9.41-6.74-.09-.26.05-.54.31-.63.26-.09.54.05.63.31,1.39,4.13,5.69,6.68,9.98,5.92,4.3-.76,7.46-4.62,7.35-8.98,0-.28.21-.51.49-.51h.01c.27,0,.49.22.5.49.12,4.85-3.4,9.15-8.18,9.99-.57.1-1.13.15-1.69.15Z"/>
  <path d="M2.6,12.73c-.27,0-.49-.22-.5-.49-.12-4.85,3.4-9.15,8.18-9.99,4.78-.84,9.55,1.99,11.1,6.59.09.26-.05.54-.31.63-.26.09-.54-.05-.63-.31-1.39-4.13-5.68-6.68-9.98-5.92-4.3.76-7.46,4.62-7.35,8.98,0,.28-.21.51-.49.51h-.01Z"/>
  <path d="M2.14,18.82s-.09,0-.13-.02c-.27-.07-.42-.35-.35-.61l.93-3.46c.07-.27.35-.42.61-.35l3.46.93c.27.07.43.35.35.61-.07.27-.35.42-.61.35l-2.98-.8-.8,2.98c-.06.22-.26.37-.48.37Z"/>
  <path d="M20.93,9.64s-.09,0-.13-.02l-3.46-.93c-.27-.07-.43-.35-.35-.61.07-.27.35-.42.61-.35l2.98.8.8-2.98c.07-.27.34-.42.61-.35.27.07.42.35.35.61l-.93,3.46c-.06.22-.26.37-.48.37Z"/>
</svg>