<?xml version="1.0" encoding="UTF-8"?>
<svg id="a" data-name="ICONS" xmlns="http://www.w3.org/2000/svg" viewBox="0 0 24 24">
  <g>
    <path d="M1.55,9.23c-.28,0-.5-.22-.5-.5V2.72c0-.92.75-1.67,1.67-1.67h6.19c.28,0,.5.22.5.5s-.22.5-.5.5H2.72c-.37,0-.67.3-.67.67v6.02c0,.28-.22.5-.5.5Z"/>
    <path d="M21.28,22.95h-5.62c-.28,0-.5-.22-.5-.5s.22-.5.5-.5h5.62c.37,0,.67-.3.67-.67v-5.79c0-.28.22-.5.5-.5s.5.22.5.5v5.79c0,.92-.75,1.67-1.67,1.67Z"/>
    <path d="M8.51,22.95H2.72c-.92,0-1.67-.75-1.67-1.67v-6.19c0-.28.22-.5.5-.5s.5.22.5.5v6.19c0,.37.3.67.67.67h5.79c.28,0,.5.22.5.5s-.22.5-.5.5Z"/>
    <path d="M22.45,8.84c-.28,0-.5-.22-.5-.5V2.72c0-.37-.3-.67-.67-.67h-5.62c-.28,0-.5-.22-.5-.5s.22-.5.5-.5h5.62c.92,0,1.67.75,1.67,1.67v5.62c0,.28-.22.5-.5.5Z"/>
  </g>
  <g>
    <path d="M12,19.32c-.07,0-.14-.02-.2-.05l-6.06-3.49c-.12-.07-.2-.2-.2-.35v-6.86h.8v6.62l5.66,3.26,5.66-3.26v-6.62h.8v6.86c0,.14-.08.28-.2.35l-6.06,3.49c-.06.04-.13.05-.2.05Z"/>
    <rect x="11.72" y="12.06" width=".8" height="6.86"/>
    <path d="M12,12.46c-.07,0-.14-.02-.2-.05l-6.06-3.49c-.12-.07-.2-.2-.2-.35s.08-.28.2-.35l6.06-3.49c.12-.07.28-.07.4,0l6.06,3.49c.12.07.2.2.2.35s-.08.28-.2.35l-6.06,3.49c-.06.04-.13.05-.2.05ZM6.74,8.57l5.26,3.03,5.26-3.03-5.26-3.03-5.26,3.03Z"/>
  </g>
</svg>