<?xml version="1.0" encoding="UTF-8"?>
<svg id="a" data-name="ICONS" xmlns="http://www.w3.org/2000/svg" viewBox="0 0 24 24">
  <path d="M12,22.66c-2.6,0-4.64-4.68-4.64-10.66S9.4,1.34,12,1.34s4.64,4.68,4.64,10.66-2.04,10.66-4.64,10.66ZM12,2.34c-1.72,0-3.64,3.96-3.64,9.66s1.92,9.66,3.64,9.66,3.64-3.96,3.64-9.66-1.92-9.66-3.64-9.66Z"/>
  <path d="M12,16.64c-5.98,0-10.66-2.04-10.66-4.64s4.68-4.64,10.66-4.64,10.66,2.04,10.66,4.64-4.68,4.64-10.66,4.64ZM12,8.36c-5.69,0-9.66,1.92-9.66,3.64s3.97,3.64,9.66,3.64,9.66-1.92,9.66-3.64-3.97-3.64-9.66-3.64Z"/>
</svg>