<?xml version="1.0" encoding="UTF-8"?>
<svg id="a" data-name="ICONS" xmlns="http://www.w3.org/2000/svg" viewBox="0 0 24 24">
  <defs>
    <style>
      .b {
        fill: #fff;
      }
    </style>
  </defs>
  <g>
    <g>
      <path class="b" d="M10.31,18.96c-2.31,0-4.48-.9-6.12-2.54-1.63-1.63-2.53-3.81-2.53-6.12s.9-4.48,2.53-6.12c3.37-3.37,8.86-3.37,12.24,0h0c3.37,3.37,3.37,8.86,0,12.24-1.63,1.63-3.81,2.54-6.12,2.54ZM10.31,2.66c-1.96,0-3.92.75-5.41,2.24-1.45,1.45-2.24,3.37-2.24,5.41s.8,3.97,2.24,5.41c1.45,1.45,3.37,2.24,5.41,2.24s3.97-.8,5.41-2.24c2.98-2.98,2.98-7.84,0-10.82h0c-1.49-1.49-3.45-2.24-5.41-2.24Z"/>
      <path class="b" d="M17.91,18.42c-.13,0-.26-.05-.35-.15l-1.84-1.84c-.2-.2-.2-.51,0-.71s.51-.2.71,0l1.84,1.84c.2.2.2.51,0,.71-.1.1-.23.15-.35.15Z"/>
      <path class="b" d="M21.84,22.34c-.13,0-.26-.05-.35-.15l-3.68-3.68c-.2-.2-.2-.51,0-.71s.51-.2.71,0l3.68,3.68c.2.2.2.51,0,.71-.1.1-.23.15-.35.15Z"/>
    </g>
    <path d="M10.31,18.96c-2.31,0-4.48-.9-6.12-2.54-1.63-1.63-2.53-3.81-2.53-6.12s.9-4.48,2.53-6.12c3.37-3.37,8.86-3.37,12.24,0h0c3.37,3.37,3.37,8.86,0,12.24-1.63,1.63-3.81,2.54-6.12,2.54ZM10.31,2.66c-1.96,0-3.92.75-5.41,2.24-1.45,1.45-2.24,3.37-2.24,5.41s.8,3.97,2.24,5.41c1.45,1.45,3.37,2.24,5.41,2.24s3.97-.8,5.41-2.24c2.98-2.98,2.98-7.84,0-10.82h0c-1.49-1.49-3.45-2.24-5.41-2.24Z"/>
    <path d="M17.91,18.42c-.13,0-.26-.05-.35-.15l-1.84-1.84c-.2-.2-.2-.51,0-.71s.51-.2.71,0l1.84,1.84c.2.2.2.51,0,.71-.1.1-.23.15-.35.15Z"/>
    <path d="M21.84,22.59c-.19,0-.38-.07-.53-.22l-3.68-3.68c-.29-.29-.29-.77,0-1.06s.77-.29,1.06,0l3.68,3.68c.29.29.29.77,0,1.06-.15.15-.34.22-.53.22Z"/>
  </g>
  <path d="M15.44,8.64c-.67.19-1.47.04-2.32-.25.05-.05.11-.12.16-.17.46-.48.88-1.01,1.13-1.46.21-.37.32-.77.1-.88-.29-.15-.58.35-.66.48-.32.49-.71.86-1.16,1.33-.7.73-1.46,1.39-1.83,2.38-.23.62-.3,1.25-.38,1.87-.02.21-.04.32-.07.52-.29-.37-.65-.56-.94-.78-.14-.11-.29-.21-.45-.31-.44-.3-.85-.58-1.18-.96-.64-.72-1.05-1.78-.95-2.82.02-.17-.07-.33-.2-.34-.18-.01-.27.22-.29.32-.21.79.1,1.98.63,2.79-1.22.1-1.9.59-2.48,1.06-.07.06-.29.26-.2.37.13.16.37-.03.42-.06.71-.52,1.63-1,2.58-.84h.09c.38.41.8.71,1.22.99.15.11.29.21.44.31.56.41.93.79,1.13,1.21-.67,2.82-2.91,4.59-2.91,4.59l1.56.54s2.13-2.11,2.39-5.81c.04-.23.06-.46.09-.69.06-.6.13-1.15.32-1.66.22-.62.63-1.13,1.1-1.64.59.23,1.21.34,1.85.34.41,0,.83-.1,1.09-.19.1-.04.38-.15.35-.27-.03-.12-.39-.06-.63,0Z"/>
</svg>