<?xml version="1.0" encoding="UTF-8"?>
<svg id="a" data-name="ICONS" xmlns="http://www.w3.org/2000/svg" viewBox="0 0 24 24">
  <path d="M20.4,21.64H3.6c-1.11,0-2.01-.91-2.01-2.02v-4.29c0-.28.22-.5.5-.5s.5.22.5.5v4.29c0,.56.45,1.02,1.01,1.02h16.8c.56,0,1.01-.46,1.01-1.02v-4.34c0-.28.22-.5.5-.5s.5.22.5.5v4.34c0,1.12-.9,2.02-2.01,2.02Z"/>
  <g>
    <path d="M12,19.5c-.28,0-.5-.22-.5-.5V2.86c0-.28.22-.5.5-.5s.5.22.5.5v16.14c0,.28-.22.5-.5.5Z"/>
    <path d="M16.92,8.51c-.13,0-.26-.05-.36-.15l-4.55-4.77-4.55,4.77c-.19.2-.51.21-.71.02-.2-.19-.21-.51-.02-.71l4.92-5.15c.19-.2.54-.2.72,0l4.92,5.15c.19.2.18.52-.02.71-.1.09-.22.14-.35.14Z"/>
  </g>
</svg>