<?xml version="1.0" encoding="UTF-8"?>
<svg id="a" data-name="ICONS" xmlns="http://www.w3.org/2000/svg" viewBox="0 0 24 24">
  <path d="M12.32,22.92c-.05,0-.1,0-.15,0-3.31-.05-6.38-1.6-8.43-4.26C1.58,15.85.83,12.27,1.69,8.82,3.14,3,8.62,1.47,10.91,1.09c.43-.07.84.11,1.08.47.24.36.24.81,0,1.17-.88,1.35-1.31,2.93-1.26,4.56.13,4.08,3.56,7.51,7.65,7.63.99.04,1.94-.11,2.85-.43.4-.14.83-.04,1.12.27.3.31.39.76.23,1.16-1.64,4.21-5.75,7-10.26,7ZM11.07,2.08c-2.6.44-7.15,1.92-8.41,6.98-.79,3.15-.1,6.43,1.87,8.99,1.86,2.42,4.65,3.83,7.65,3.87,4.14.02,7.95-2.5,9.46-6.37h0s0-.08-.02-.1c-1.1.34-2.18.5-3.29.47-4.6-.14-8.46-4-8.61-8.6-.06-1.83.43-3.61,1.42-5.13l-.08-.12Z"/>
</svg>