<?xml version="1.0" encoding="UTF-8"?>
<svg id="a" data-name="ICONS" xmlns="http://www.w3.org/2000/svg" viewBox="0 0 24 24">
  <path d="M12,17.82c-3.21,0-5.82-2.61-5.82-5.82s2.61-5.82,5.82-5.82,5.82,2.61,5.82,5.82-2.61,5.82-5.82,5.82ZM12,7.18c-2.66,0-4.82,2.16-4.82,4.82s2.16,4.82,4.82,4.82,4.82-2.16,4.82-4.82-2.16-4.82-4.82-4.82Z"/>
  <g>
    <path d="M12,4.56c-.28,0-.5-.22-.5-.5V1.79c0-.28.22-.5.5-.5s.5.22.5.5v2.27c0,.28-.22.5-.5.5Z"/>
    <path d="M12,22.71c-.28,0-.5-.22-.5-.5v-2.27c0-.28.22-.5.5-.5s.5.22.5.5v2.27c0,.28-.22.5-.5.5Z"/>
  </g>
  <g>
    <path d="M22.21,12.5h-2.27c-.28,0-.5-.22-.5-.5s.22-.5.5-.5h2.27c.28,0,.5.22.5.5s-.22.5-.5.5Z"/>
    <path d="M4.06,12.5H1.79c-.28,0-.5-.22-.5-.5s.22-.5.5-.5h2.27c.28,0,.5.22.5.5s-.22.5-.5.5Z"/>
  </g>
  <g>
    <path d="M6.39,6.89c-.13,0-.26-.05-.35-.15l-1.6-1.6c-.2-.2-.2-.51,0-.71s.51-.2.71,0l1.6,1.6c.2.2.2.51,0,.71-.1.1-.23.15-.35.15Z"/>
    <path d="M19.22,19.72c-.13,0-.26-.05-.35-.15l-1.6-1.6c-.2-.2-.2-.51,0-.71s.51-.2.71,0l1.6,1.6c.2.2.2.51,0,.71-.1.1-.23.15-.35.15Z"/>
  </g>
  <g>
    <path d="M17.61,6.89c-.13,0-.26-.05-.35-.15-.2-.2-.2-.51,0-.71l1.6-1.6c.2-.2.51-.2.71,0s.2.51,0,.71l-1.6,1.6c-.1.1-.23.15-.35.15Z"/>
    <path d="M4.78,19.72c-.13,0-.26-.05-.35-.15-.2-.2-.2-.51,0-.71l1.6-1.6c.2-.2.51-.2.71,0s.2.51,0,.71l-1.6,1.6c-.1.1-.23.15-.35.15Z"/>
  </g>
</svg>