<?xml version="1.0" encoding="UTF-8"?>
<svg id="a" data-name="ICONS" xmlns="http://www.w3.org/2000/svg" viewBox="0 0 24 24">
  <path d="M14.04,5.26c-.13,0-.26-.05-.35-.15l-1.69-1.69-1.69,1.69c-.2.2-.51.2-.71,0s-.2-.51,0-.71l2.04-2.04c.2-.2.51-.2.71,0l2.04,2.04c.2.2.2.51,0,.71-.1.1-.23.15-.35.15Z"/>
  <path d="M4.58,21.78s-.09,0-.13-.02l-2.79-.75c-.27-.07-.42-.35-.35-.61l.75-2.79c.07-.27.35-.42.61-.35.27.07.42.35.35.61l-.62,2.3,2.31.62c.27.07.42.35.35.61-.06.22-.26.37-.48.37Z"/>
  <path d="M19.42,21.78c-.22,0-.42-.15-.48-.37-.07-.27.09-.54.35-.61l2.31-.62-.62-2.3c-.07-.27.09-.54.35-.61.27-.07.54.09.61.35l.75,2.79c.07.27-.09.54-.35.61l-2.79.75s-.09.02-.13.02Z"/>
  <path d="M12,15.1c-.28,0-.5-.22-.5-.5V2.82c0-.28.22-.5.5-.5s.5.22.5.5v11.79c0,.28-.22.5-.5.5Z"/>
  <path d="M22.21,21c-.08,0-.17-.02-.25-.07l-9.96-5.75-9.96,5.75c-.24.14-.54.06-.68-.18-.14-.24-.06-.54.18-.68l10.21-5.9c.15-.09.35-.09.5,0l10.21,5.9c.24.14.32.44.18.68-.09.16-.26.25-.43.25Z"/>
</svg>